<?xml version="1.0" standalone="no"?>
<!DOCTYPE svg PUBLIC "-//W3C//DTD SVG 20010904//EN"
 "http://www.w3.org/TR/2001/REC-SVG-20010904/DTD/svg10.dtd">
<svg version="1.0" xmlns="http://www.w3.org/2000/svg"
 width="128.000000pt" height="128.000000pt" viewBox="0 0 128.000000 128.000000"
 preserveAspectRatio="xMidYMid meet">

<g transform="translate(0.000000,128.000000) scale(0.100000,-0.100000)"
fill="#000000" stroke="none">
<path d="M364 1135 c-19 -19 -25 -34 -22 -60 2 -32 -5 -42 -80 -118 -76 -76
-85 -83 -117 -79 -26 3 -40 -2 -59 -22 -36 -35 -35 -80 4 -116 24 -23 30 -36
30 -70 0 -34 -6 -47 -30 -70 -39 -36 -40 -81 -4 -117 21 -21 32 -25 64 -20 48
6 59 -5 53 -53 -5 -32 -1 -43 20 -64 36 -36 81 -35 117 4 28 30 30 30 130 30
100 0 102 0 130 -30 19 -21 38 -30 58 -30 39 0 86 -54 71 -81 -27 -52 13 -119
72 -119 22 0 39 9 59 30 25 27 34 30 90 30 56 0 65 -3 90 -30 70 -75 183 14
124 98 -19 27 -11 72 12 72 8 0 26 11 39 25 33 32 33 78 0 111 -24 24 -25 30
-25 144 0 114 1 120 25 144 53 53 12 143 -60 134 -32 -4 -41 3 -117 79 -75 76
-82 86 -80 118 3 26 -3 41 -22 60 -35 35 -80 34 -116 -5 l-28 -30 -142 0 -142
0 -28 30 c-36 39 -81 40 -116 5z m86 -30 c26 -32 -13 -81 -47 -59 -35 22 -23
74 17 74 10 0 23 -7 30 -15z m460 0 c26 -32 -13 -81 -47 -59 -35 22 -23 74 17
74 10 0 23 -7 30 -15z m-98 -67 c13 -19 13 -26 -1 -60 -12 -28 -22 -38 -39
-38 -14 0 -36 -13 -52 -30 -23 -24 -36 -30 -70 -30 -34 0 -47 6 -70 30 -15 17
-37 30 -49 30 -14 0 -27 12 -40 38 -17 33 -17 39 -4 60 15 21 21 22 163 22
141 0 148 -1 162 -22z m-393 -38 c10 0 24 -15 34 -35 16 -34 16 -37 0 -63 -9
-15 -17 -28 -18 -29 -1 -3 -194 -33 -212 -33 -11 0 12 30 67 85 49 50 90 83
98 80 8 -3 21 -5 31 -5z m591 -75 c46 -46 82 -86 79 -89 -4 -4 -220 31 -223
36 -1 2 -10 15 -19 30 -16 26 -16 30 0 62 11 24 24 36 42 39 14 2 28 5 31 6 3
0 43 -37 90 -84z m-460 -40 c26 -32 -13 -81 -47 -59 -35 22 -23 74 17 74 10 0
23 -7 30 -15z m260 0 c26 -32 -13 -81 -47 -59 -35 22 -23 74 17 74 10 0 23 -7
30 -15z m-640 -60 c26 -32 -13 -81 -47 -59 -35 22 -23 74 17 74 10 0 23 -7 30
-15z m544 -9 c15 -23 14 -28 -4 -70 -27 -63 -50 -61 -94 7 -44 67 -36 87 33
87 41 0 51 -4 65 -24z m476 9 c26 -32 -13 -81 -47 -59 -35 22 -23 74 17 74 10
0 23 -7 30 -15z m-736 -11 c3 -8 -5 -37 -19 -63 -22 -45 -27 -49 -70 -54 -42
-6 -50 -4 -95 31 -73 56 -68 67 43 85 122 20 134 20 141 1z m520 -3 c85 -16
118 -31 115 -51 0 -3 -17 -19 -37 -37 -33 -28 -42 -31 -84 -26 -43 5 -50 10
-83 57 -37 54 -44 76 -22 76 6 -1 56 -9 111 -19z m-390 -83 c49 -72 39 -88
-54 -88 -59 0 -71 3 -80 20 -8 15 -7 26 5 45 8 14 22 36 30 50 26 42 59 33 99
-27z m269 1 c52 -69 47 -83 -29 -87 -56 -3 -63 -1 -77 22 -16 23 -15 28 3 70
27 64 53 62 103 -5z m-553 -94 c0 -18 -8 -25 -45 -34 -38 -10 -49 -9 -70 5
-21 14 -25 24 -25 65 0 71 20 77 87 27 37 -28 53 -47 53 -63z m838 -25 c1 -63
0 -120 -3 -129 -4 -11 -18 -3 -54 33 -46 45 -48 50 -46 96 3 41 8 53 42 84 21
19 43 34 48 32 6 -1 11 -52 13 -116z m-728 35 c26 -32 -13 -81 -47 -59 -35 22
-23 74 17 74 10 0 23 -7 30 -15z m300 0 c26 -32 -13 -81 -47 -59 -35 22 -23
74 17 74 10 0 23 -7 30 -15z m280 0 c26 -32 -13 -81 -47 -59 -35 22 -23 74 17
74 10 0 23 -7 30 -15z m-369 -76 c35 -37 39 -84 9 -94 -11 -3 -25 -3 -32 1
-35 21 -138 107 -138 115 0 5 30 9 66 9 61 0 68 -2 95 -31z m259 23 c0 -14
-164 -129 -178 -124 -6 2 -12 19 -12 37 0 25 5 35 20 40 11 4 28 17 36 31 14
21 24 24 75 24 33 0 59 -4 59 -8z m-710 -27 c15 -18 10 -45 -12 -59 -35 -22
-74 27 -48 59 16 19 44 19 60 0z m155 -4 c3 -5 -2 -25 -11 -44 -29 -61 -109
-56 -97 6 4 20 14 29 37 36 42 12 64 13 71 2z m184 -68 c39 -31 71 -60 71 -65
0 -4 -49 -8 -109 -8 -102 0 -110 1 -124 23 -13 20 -13 26 3 57 16 31 39 46 76
49 6 1 43 -24 83 -56z m539 0 c23 -26 41 -52 39 -58 -4 -12 -347 -20 -346 -8
0 5 35 33 77 64 74 54 79 56 132 53 52 -2 58 -5 98 -51z m-738 -68 c26 -32
-13 -81 -47 -59 -23 14 -28 41 -13 59 16 19 44 19 60 0z m380 0 c26 -32 -13
-81 -47 -59 -23 14 -28 41 -13 59 16 19 44 19 60 0z m500 0 c26 -32 -13 -81
-47 -59 -23 14 -28 41 -13 59 16 19 44 19 60 0z m-125 -58 c-11 -8 -60 -35
-109 -61 -77 -42 -91 -47 -113 -37 -13 6 -36 11 -51 11 -34 0 -75 57 -60 83 8
15 30 17 181 17 146 0 168 -2 152 -13z m49 -35 c11 -18 -7 -52 -26 -52 -11 0
-33 -14 -48 -30 -27 -29 -33 -31 -89 -28 l-60 3 102 57 c110 61 113 62 121 50z
m-284 -107 c15 -18 10 -45 -12 -59 -35 -22 -74 27 -48 59 16 19 44 19 60 0z
m300 0 c15 -18 10 -45 -12 -59 -35 -22 -74 27 -48 59 16 19 44 19 60 0z"/>
</g>
</svg>
