<?xml version="1.0" standalone="no"?>
<!DOCTYPE svg PUBLIC "-//W3C//DTD SVG 20010904//EN"
 "http://www.w3.org/TR/2001/REC-SVG-20010904/DTD/svg10.dtd">
<svg version="1.0" xmlns="http://www.w3.org/2000/svg"
 width="128.000000pt" height="128.000000pt" viewBox="0 0 128.000000 128.000000"
 preserveAspectRatio="xMidYMid meet">

<g transform="translate(0.000000,128.000000) scale(0.100000,-0.100000)"
fill="#000000" stroke="none">
<path d="M510 1254 c-6 -14 -10 -40 -10 -57 0 -59 -10 -75 -56 -93 l-43 -16
-52 41 c-28 22 -59 41 -68 41 -21 0 -171 -150 -171 -171 0 -9 19 -40 41 -68
l41 -52 -16 -43 c-18 -46 -34 -56 -93 -56 -17 0 -43 -4 -57 -10 -26 -9 -26
-10 -26 -130 0 -120 0 -121 26 -130 14 -6 40 -10 57 -10 59 0 75 -10 93 -56
l16 -43 -41 -52 c-22 -28 -41 -59 -41 -68 0 -21 150 -171 171 -171 9 0 40 19
68 41 l52 41 43 -16 c46 -18 56 -34 56 -93 0 -17 4 -43 10 -57 9 -26 10 -26
130 -26 120 0 121 0 130 26 6 14 10 40 10 57 0 59 10 75 56 93 l43 16 52 -41
c28 -22 59 -41 68 -41 21 0 171 150 171 171 0 9 -19 40 -41 68 l-41 52 16 43
c18 46 34 56 93 56 17 0 43 4 57 10 26 9 26 10 26 130 0 120 0 121 -26 130
-14 6 -40 10 -57 10 -59 0 -75 10 -93 56 l-16 43 41 52 c22 28 41 59 41 68 0
21 -150 171 -171 171 -9 0 -40 -19 -68 -41 l-52 -41 -43 16 c-46 18 -56 34
-56 93 0 17 -4 43 -10 57 -9 26 -10 26 -130 26 -120 0 -121 0 -130 -26z m214
-40 c3 -9 6 -32 6 -52 0 -58 19 -81 85 -108 33 -13 64 -24 69 -24 5 0 27 15
50 33 23 18 46 36 52 40 6 3 36 -20 68 -52 l57 -57 -41 -51 c-22 -28 -40 -55
-40 -59 0 -22 51 -130 66 -141 10 -7 37 -13 60 -13 72 0 74 -3 74 -90 0 -86
-3 -90 -68 -90 -58 0 -81 -19 -108 -85 -13 -33 -24 -64 -24 -69 0 -4 18 -31
40 -59 l41 -51 -57 -57 c-32 -32 -62 -55 -68 -52 -6 4 -29 22 -52 40 -23 18
-45 33 -50 33 -5 0 -36 -11 -69 -24 -66 -27 -85 -50 -85 -108 0 -65 -4 -68
-90 -68 -86 0 -90 3 -90 68 0 58 -19 81 -85 108 -33 13 -64 24 -69 24 -5 0
-27 -15 -50 -33 -23 -18 -46 -36 -52 -40 -6 -3 -36 20 -68 52 l-57 57 41 51
c22 28 40 55 40 59 0 5 -11 36 -24 69 -27 66 -50 85 -108 85 -65 0 -68 4 -68
90 0 86 3 90 68 90 58 0 81 19 108 85 13 33 24 64 24 69 0 5 -15 27 -33 50
-18 23 -36 46 -40 52 -3 6 20 36 52 68 l57 57 51 -41 c28 -22 55 -40 59 -40
22 0 130 51 141 66 7 10 13 37 13 60 0 72 3 74 90 74 62 0 79 -3 84 -16z"/>
<path d="M544 1001 c-97 -25 -196 -111 -242 -209 -23 -49 -27 -70 -27 -152 0
-107 27 -190 62 -190 10 0 56 38 103 85 47 47 87 85 91 85 3 0 19 -18 33 -39
15 -22 35 -42 43 -45 10 -4 45 23 104 81 l89 87 0 -47 c0 -44 2 -47 25 -47
l26 0 -3 93 -3 92 -87 3 -88 3 0 -26 c0 -23 3 -25 47 -25 l47 0 -73 -74 -74
-75 -34 45 c-19 24 -41 44 -51 44 -9 0 -56 -39 -104 -87 l-87 -86 -8 29 c-4
16 -8 63 -7 104 1 90 28 151 96 217 63 62 127 87 218 87 90 0 147 -22 214 -84
116 -107 135 -272 48 -405 -20 -30 -40 -55 -44 -55 -4 0 -8 34 -8 75 0 73 -1
75 -25 75 -25 0 -25 0 -25 -98 0 -95 -1 -99 -25 -110 l-24 -11 -3 82 c-3 80
-4 82 -28 82 -25 0 -25 -1 -28 -93 -3 -90 -3 -92 -27 -92 -24 0 -25 3 -25 55
0 52 -1 55 -25 55 -23 0 -25 -3 -25 -50 0 -51 -7 -58 -44 -44 -12 5 -16 21
-16 75 0 67 -1 69 -25 69 -24 0 -25 -3 -25 -55 0 -55 -6 -65 -28 -43 -8 8 -15
8 -27 -2 -27 -23 -16 -38 52 -72 62 -30 75 -33 163 -33 82 0 103 4 152 27 79
37 142 98 181 177 29 60 32 74 32 161 0 87 -3 101 -32 161 -63 128 -176 201
-318 205 -44 2 -94 0 -111 -5z"/>
</g>
</svg>
