<?xml version="1.0" standalone="no"?>
<!DOCTYPE svg PUBLIC "-//W3C//DTD SVG 20010904//EN"
 "http://www.w3.org/TR/2001/REC-SVG-20010904/DTD/svg10.dtd">
<svg version="1.0" xmlns="http://www.w3.org/2000/svg"
 width="128.000000pt" height="128.000000pt" viewBox="0 0 128.000000 128.000000"
 preserveAspectRatio="xMidYMid meet">

<g transform="translate(0.000000,128.000000) scale(0.100000,-0.100000)"
fill="#000000" stroke="none">
<path d="M576 1188 c-60 -16 -130 -91 -146 -156 -19 -79 0 -143 60 -202 89
-90 211 -90 300 0 90 89 90 211 1 300 -64 63 -128 81 -215 58z m133 -86 c93
-50 93 -194 0 -244 -95 -51 -209 16 -209 122 0 76 64 140 140 140 19 0 51 -8
69 -18z"/>
<path d="M162 1033 c-13 -2 -38 -19 -56 -38 -57 -56 -57 -133 -1 -190 56 -56
134 -56 190 0 99 99 7 257 -133 228z m80 -90 c38 -34 11 -103 -40 -103 -54 0
-81 62 -45 102 20 22 61 23 85 1z"/>
<path d="M1042 1033 c-13 -2 -38 -19 -56 -38 -57 -56 -57 -133 -1 -190 56 -56
134 -56 190 0 99 99 7 257 -133 228z m80 -90 c38 -34 11 -103 -40 -103 -54 0
-81 62 -45 102 20 22 61 23 85 1z"/>
<path d="M105 661 c-46 -21 -79 -54 -94 -94 -6 -16 -11 -100 -11 -192 0 -218
-7 -209 169 -213 l131 -4 14 -27 c25 -48 47 -51 326 -51 279 0 301 3 326 51
l14 27 131 4 c176 4 169 -5 169 213 0 170 -6 203 -43 244 -77 83 -253 79 -317
-7 l-22 -30 -44 33 c-62 48 -106 60 -214 60 -108 0 -152 -12 -214 -60 l-44
-33 -22 30 c-47 64 -171 88 -255 49z m187 -91 c27 -28 29 -35 24 -78 -3 -26
-8 -93 -12 -149 l-7 -103 -108 0 -109 0 0 155 c0 156 0 156 26 180 23 21 37
25 91 25 58 0 67 -3 95 -30z m503 -5 c36 -22 57 -45 77 -84 27 -51 28 -60 28
-187 l0 -134 -261 0 -260 0 3 143 c3 140 4 145 33 192 22 36 45 57 85 78 51
27 61 28 151 25 86 -3 101 -6 144 -33z m379 10 c26 -24 26 -24 26 -180 l0
-155 -109 0 -108 0 -7 103 c-4 56 -9 123 -12 149 -5 43 -3 50 24 78 28 27 37
30 95 30 54 0 68 -4 91 -25z"/>
</g>
</svg>
