<svg id="Layer_1" data-name="Layer 1" xmlns="http://www.w3.org/2000/svg" viewBox="0 0 371.28 298.26"><defs><style>.cls-1{fill:#1f262c;}.cls-2{fill:#00c7e3;}</style></defs><rect class="cls-1" y="60.07" width="171.74" height="171.74" rx="13.09"/><path class="cls-2" d="M538.94,390.92s3.28-51,79.12-94.57S683.61,235,683.61,235s13.1,121.26-69.76,171.82S538.94,390.92,538.94,390.92Z" transform="translate(-497.45 -235.02)"/><path class="cls-2" d="M740.58,503.73a37.69,37.69,0,0,1-14.73,2.76,35.14,35.14,0,0,1-11-1.64,24.9,24.9,0,0,1-8.53-4.71,21.08,21.08,0,0,1-5.5-7.46,24,24,0,0,1-2-9.89v-2.22A23,23,0,0,1,705,464.49q6.19-6.76,18.38-12.17l26.48-11.61v-6.14l-44.8-1.37q-5.08-.33-5.09,4.37v8.23h3.29v-8.58l43.53.74v.32l-24.15,10.89q-14,6.22-20.6,14.25a28,28,0,0,0-6.62,18.37,30.63,30.63,0,0,0,2.27,12.09,25.75,25.75,0,0,0,6.31,9,27.36,27.36,0,0,0,9.58,5.65,36.78,36.78,0,0,0,12.23,1.95,41.1,41.1,0,0,0,16.1-3,33.78,33.78,0,0,0,12.92-9.9l-2.43-3A31.24,31.24,0,0,1,740.58,503.73Z" transform="translate(-497.45 -235.02)"/><path class="cls-2" d="M865.23,400.05v61.42q0,6.67-3.17,9.8T852,474.4H839.18c-3.32,0-5.83-.75-7.52-2.23s-3.07-4.2-4.13-8.15l-6.88-24.68h-3.82l-7.84,3.6q-8.46,3.92-12.12,8.74a17.94,17.94,0,0,0-3.66,11.17,15.63,15.63,0,0,0,1.7,7.63q-3.6,3.91-11.12,3.92h-5.72q-6.57,0-9.22-2.76t-2.64-9.74V400.05h-3.5V461.9a30,30,0,0,0,.85,7.78,11.37,11.37,0,0,0,2.75,5.09,10.79,10.79,0,0,0,5,2.8,30,30,0,0,0,7.79.85h3.39a18.83,18.83,0,0,0,8.05-1.59,12.39,12.39,0,0,0,5.29-4.55h.32q4.67,6.14,16.1,6.14h10.48v-4H812.49q-7.72,0-11.86-3a10.16,10.16,0,0,1-4.13-8.74,13.42,13.42,0,0,1,3.49-9.22q3.5-3.92,10.7-7.3l7-3.29,6.46,22.67a34.58,34.58,0,0,0,2.33,6.19,12.58,12.58,0,0,0,3,4,10.32,10.32,0,0,0,4.13,2.11,21.41,21.41,0,0,0,5.56.64H852q8.68,0,12.71-4.13t4-12.82V400.05Z" transform="translate(-497.45 -235.02)"/><polygon class="cls-1" points="8 239.75 4.95 239.75 4.95 297.28 34.29 297.28 34.29 294.56 8 294.56 8 239.75"/><path class="cls-1" d="M568.25,503.28q0-6.67-3.63-10.26T554,489.44q-5.85,0-9.23,2.35a14.7,14.7,0,0,0-5.11,6.22l2.06,1.4q3.38-7.43,12.2-7.42,5.69,0,8.57,2.85c1.92,1.89,2.89,4.82,2.89,8.77v5.61h-11a29,29,0,0,0-7.62.86,13.38,13.38,0,0,0-5,2.48,9,9,0,0,0-2.76,3.83,14.1,14.1,0,0,0-.82,4.94c0,3.79,1.18,6.74,3.54,8.82s5.71,3.13,10.06,3.13c3.62,0,6.51-.71,8.65-2.14a12.89,12.89,0,0,0,4.7-5.36h.33v3.05q.16,3.46,3.54,3.47h5.69v-2.56h-6.43Zm-2.88,16.82a9.46,9.46,0,0,1-1.08,4.61,9.73,9.73,0,0,1-2.88,3.3,13.49,13.49,0,0,1-4.25,2,18.36,18.36,0,0,1-5.15.7,13.35,13.35,0,0,1-7.79-2.1,7.11,7.11,0,0,1-3-6.22V520.1a7.42,7.42,0,0,1,3.13-6.23q3.14-2.34,10-2.34h11Z" transform="translate(-497.45 -235.02)"/><path class="cls-1" d="M627.1,489.44q-5.69,0-9,2.55a12.47,12.47,0,0,0-4.49,6.51h-.25a12.15,12.15,0,0,0-4.78-6.8,14.59,14.59,0,0,0-8.32-2.26,16,16,0,0,0-4.74.62,12.59,12.59,0,0,0-3.5,1.64,11.58,11.58,0,0,0-2.52,2.35,11.24,11.24,0,0,0-1.6,2.8h-.25v-6.42h-2.89V532.3h2.89V502.54a10.13,10.13,0,0,1,1-4.61,9.5,9.5,0,0,1,2.68-3.3,11.62,11.62,0,0,1,3.87-2,15.73,15.73,0,0,1,4.57-.66q5.78,0,8.82,3.34t3.05,10.51V532.3h2.89V502.62a10.43,10.43,0,0,1,1-4.65,9.7,9.7,0,0,1,2.63-3.34,11.29,11.29,0,0,1,3.84-2,15.69,15.69,0,0,1,4.57-.66q5.94,0,8.9,3.38t3,10.47V532.3h2.89V505.43q0-7.83-3.63-11.91T627.1,489.44Z" transform="translate(-497.45 -235.02)"/><path class="cls-1" d="M699.46,489.44c-3.79,0-6.79.85-9,2.55A12.41,12.41,0,0,0,686,498.5h-.25a12.2,12.2,0,0,0-4.78-6.8,14.61,14.61,0,0,0-8.32-2.26,15.93,15.93,0,0,0-4.74.62,12.66,12.66,0,0,0-3.51,1.64,11.52,11.52,0,0,0-2.51,2.35,11.28,11.28,0,0,0-1.61,2.8H660v-6.42H657.1V532.3H660V502.54a10.13,10.13,0,0,1,1-4.61,9.61,9.61,0,0,1,2.68-3.3,11.77,11.77,0,0,1,3.88-2,15.69,15.69,0,0,1,4.57-.66q5.77,0,8.82,3.34T684,505.84V532.3h2.88V502.62a10.43,10.43,0,0,1,1-4.65,9.61,9.61,0,0,1,2.64-3.34,11.33,11.33,0,0,1,3.83-2,15.75,15.75,0,0,1,4.58-.66q5.93,0,8.9,3.38t3,10.47V532.3h2.88V505.43q0-7.83-3.63-11.91T699.46,489.44Z" transform="translate(-497.45 -235.02)"/><path class="cls-1" d="M756,503.28q0-6.67-3.63-10.26t-10.63-3.58c-3.91,0-7,.78-9.23,2.35A14.73,14.73,0,0,0,727.4,498l2.07,1.4q3.38-7.43,12.19-7.42c3.8,0,6.65.95,8.58,2.85s2.88,4.82,2.88,8.77v5.61h-11a29.07,29.07,0,0,0-7.63.86,13.34,13.34,0,0,0-5,2.48,8.92,8.92,0,0,0-2.76,3.83,14.1,14.1,0,0,0-.83,4.94c0,3.79,1.18,6.74,3.55,8.82s5.71,3.13,10,3.13c3.63,0,6.51-.71,8.66-2.14a12.87,12.87,0,0,0,4.69-5.36h.33v3.05q.16,3.46,3.55,3.47h5.68v-2.56H756Zm-2.89,16.82a9.57,9.57,0,0,1-1.07,4.61,9.86,9.86,0,0,1-2.89,3.3,13.44,13.44,0,0,1-4.24,2,18.41,18.41,0,0,1-5.15.7,13.3,13.3,0,0,1-7.79-2.1,7.09,7.09,0,0,1-3-6.22V520.1a7.42,7.42,0,0,1,3.13-6.23q3.14-2.34,10.06-2.34h11Z" transform="translate(-497.45 -235.02)"/><path class="cls-1" d="M799.07,493.52q-3.68-4.08-10.59-4.08-5.44,0-8.53,2.18a11.88,11.88,0,0,0-4.33,5.23h-.25V471.3h-2.88v61h2.88V502.54a9.56,9.56,0,0,1,3.79-7.91,12.18,12.18,0,0,1,4-2,16.61,16.61,0,0,1,4.66-.66q5.85,0,8.94,3.34c2.06,2.22,3.09,5.76,3.09,10.59V532.3h2.89V505.43Q802.74,497.6,799.07,493.52Z" transform="translate(-497.45 -235.02)"/><path class="cls-1" d="M805.48,421.76a5.81,5.81,0,0,1-4.81-2.12,9.45,9.45,0,0,1-1.68-6v-5.5h2.25v5.5a6.27,6.27,0,0,0,1.24,4.12,4.2,4.2,0,0,0,3.38,1.49,5,5,0,0,0,4.36-2.12,10,10,0,0,0,1.5-5.87v-6.49H814v3.37a9.37,9.37,0,0,0,1.37,5.37,4.68,4.68,0,0,0,4.12,2q5,0,5-6.24a17.35,17.35,0,0,0-.44-3.81,32.33,32.33,0,0,0-1.06-3.68l2.24-.75a36.16,36.16,0,0,1,1.07,4,19.46,19.46,0,0,1,.43,3.87q0,9.12-7.36,9.12a6,6,0,0,1-4.12-1.44,6.71,6.71,0,0,1-2.12-3.68h-.25a10.8,10.8,0,0,1-2,6.49A6.45,6.45,0,0,1,805.48,421.76Z" transform="translate(-497.45 -235.02)"/></svg>