<?xml version="1.0" standalone="no"?>
<!DOCTYPE svg PUBLIC "-//W3C//DTD SVG 20010904//EN"
 "http://www.w3.org/TR/2001/REC-SVG-20010904/DTD/svg10.dtd">
<svg version="1.0" xmlns="http://www.w3.org/2000/svg"
 width="742.000000pt" height="742.000000pt" viewBox="0 0 742.000000 742.000000"
 preserveAspectRatio="xMidYMid meet">
<metadata>
Created by potrace 1.14, written by Peter Selinger 2001-2017
</metadata>
<g transform="translate(0.000000,742.000000) scale(0.100000,-0.100000)"
fill="#000000" stroke="none">
<path d="M3721 6581 c-2 -24 -63 -151 -72 -151 -5 0 -9 -5 -9 -11 0 -18 -61
-90 -160 -190 -109 -109 -185 -175 -320 -277 -52 -40 -99 -76 -105 -80 -54
-42 -394 -261 -531 -341 l-70 -41 -1117 0 c-1095 0 -1117 0 -1170 -20 -63 -24
-118 -78 -147 -146 -20 -45 -20 -74 -20 -1552 l0 -1507 24 -50 c32 -70 87
-119 154 -141 53 -16 150 -17 1532 -17 811 0 1494 3 1517 7 37 7 104 46 140
82 17 17 53 87 59 115 2 13 5 546 5 1184 0 1027 2 1166 16 1210 9 28 19 55 23
60 5 6 8 12 9 15 0 3 2 12 5 20 13 39 78 247 81 260 2 8 12 51 24 96 17 67 37
156 56 244 1 8 6 35 10 60 4 25 9 54 11 65 9 45 13 73 20 130 3 33 8 68 9 77
2 9 7 48 10 85 4 37 8 79 11 93 14 91 24 619 13 695 -3 22 -7 34 -8 26z"/>
<path d="M5318 3392 c-17 -3 -17 -46 -15 -685 2 -656 3 -684 22 -729 28 -65
58 -96 119 -123 l52 -23 -1 -528 c0 -291 1 -535 3 -541 2 -7 16 -13 31 -13
l26 0 -1 312 c0 173 4 326 9 343 31 97 131 154 258 148 119 -5 192 -68 215
-184 4 -19 7 -166 7 -326 l1 -293 28 0 c32 0 29 -39 29 353 0 313 -7 348 -85
429 -47 49 -108 71 -201 71 -103 1 -180 -31 -222 -92 -15 -22 -31 -40 -34 -41
-3 0 -5 80 -5 178 l1 177 102 1 c56 1 114 5 130 9 15 3 30 7 33 7 18 1 85 44
115 74 l35 35 25 -29 c28 -34 121 -78 185 -88 25 -3 106 -7 180 -8 l135 0 3
39 3 40 -143 1 c-228 2 -308 34 -363 144 -38 75 -11 209 56 278 60 61 89 81
213 143 125 62 142 67 143 47 1 -11 98 -354 132 -468 35 -115 98 -189 183
-213 70 -21 427 -15 506 8 34 10 62 21 62 26 0 4 9 11 20 14 11 3 33 26 50 50
59 85 59 94 60 806 l0 649 -35 0 -35 0 -1 -637 c0 -351 -3 -651 -5 -667 -7
-39 -37 -96 -66 -123 -48 -45 -108 -56 -318 -56 -153 0 -203 3 -231 15 -71 30
-102 84 -149 254 -17 60 -39 139 -50 175 -12 37 -23 77 -25 89 -2 13 -9 37
-14 54 -5 17 -15 50 -20 72 -10 36 -15 42 -39 42 -41 1 -86 -15 -204 -74 -173
-84 -249 -153 -293 -264 -24 -63 -29 -173 -9 -233 16 -47 15 -49 -6 -72 -34
-37 -117 -57 -233 -57 -144 0 -136 -2 -134 30 2 23 -2 27 -29 30 -28 3 -31 0
-29 -22 3 -23 1 -24 -26 -14 -38 13 -73 61 -87 118 -8 30 -11 254 -12 680 0
349 0 640 0 646 0 13 -27 22 -52 16z"/>
<path d="M6521 3361 c-13 -8 -13 -15 0 -53 18 -55 15 -152 -6 -184 -20 -31
-57 -46 -96 -39 -59 11 -91 63 -93 154 -1 48 -4 54 -23 57 -22 4 -23 1 -23
-79 1 -45 -1 -91 -4 -102 -16 -70 -51 -105 -106 -105 -71 0 -100 44 -100 150
0 68 -1 71 -22 68 -21 -3 -23 -8 -23 -77 0 -129 44 -191 137 -191 45 0 82 19
108 54 16 22 19 32 27 84 l5 33 19 -30 c46 -76 146 -89 216 -28 41 36 55 166
27 249 -7 20 -10 39 -7 42 10 10 -21 7 -36 -3z"/>
<path d="M4071 2706 c-19 -20 -22 -35 -23 -120 -2 -104 4 -117 45 -109 21 4
22 10 21 88 l-1 84 326 -5 c179 -3 372 -7 428 -8 56 -1 105 -5 109 -9 4 -4 3
-7 -3 -7 -6 0 -41 -14 -79 -32 -38 -17 -71 -32 -74 -33 -3 0 -41 -18 -84 -38
-43 -20 -80 -37 -82 -37 -5 0 -167 -76 -246 -115 -231 -115 -399 -294 -435
-465 -17 -78 -20 -173 -9 -252 6 -46 5 -48 -21 -54 -67 -16 -139 -76 -164
-136 l-12 -29 -28 50 c-50 87 -135 129 -256 126 -94 -3 -168 -44 -213 -118
l-20 -32 -1 35 c-1 19 0 49 1 66 1 28 -2 31 -29 32 l-31 1 0 -420 0 -419 30 0
29 0 0 319 c0 346 2 363 56 417 94 94 295 89 369 -9 48 -63 53 -101 54 -423 1
-290 1 -298 21 -306 13 -4 23 -3 28 5 4 7 9 151 10 322 1 171 3 317 6 325 19
69 74 122 146 143 l45 12 34 -69 c40 -79 135 -182 200 -215 23 -12 43 -25 43
-29 1 -4 2 -115 3 -247 l1 -240 24 -3 c13 -2 26 1 30 6 3 6 6 112 5 236 -1
202 1 226 15 222 9 -3 30 -7 46 -10 17 -3 46 -9 65 -12 41 -8 203 -8 243 -1
38 8 34 -7 -8 -22 -47 -17 -104 -85 -112 -136 -26 -152 32 -255 163 -291 151
-40 288 6 361 122 10 16 12 13 12 -27 1 -72 25 -91 113 -87 59 2 72 6 74 20 3
25 -12 32 -73 29 -49 -2 -53 0 -54 21 0 13 -1 151 -3 308 -2 265 -4 288 -23
330 -49 105 -137 150 -280 144 -119 -4 -201 -49 -249 -137 -13 -25 -13 -29 1
-43 9 -9 17 -15 18 -13 2 2 20 25 41 52 52 65 109 90 206 90 80 -1 129 -16
169 -54 l24 -23 -58 -53 c-53 -49 -175 -117 -227 -129 -123 -27 -266 -36 -340
-20 -16 3 -40 8 -55 11 -68 13 -78 22 -79 74 -2 56 -30 126 -69 169 -31 35
-108 71 -161 75 -22 2 -40 10 -46 21 -5 10 -11 62 -12 116 -5 200 57 325 230
460 56 44 240 147 279 156 6 1 48 20 95 41 75 35 113 52 130 58 10 4 87 38
135 60 28 12 73 32 100 44 l50 21 0 60 c0 34 -4 61 -10 61 -5 1 -53 3 -105 4
-883 29 -833 29 -859 1z m108 -1195 c15 -11 37 -39 48 -63 23 -46 39 -108 28
-108 -30 0 -165 129 -165 157 0 6 -6 16 -14 23 -8 6 -12 18 -10 25 5 11 12 11
45 -1 22 -7 53 -22 68 -33z m930 -211 l2 -89 -156 -3 c-85 -2 -155 0 -155 5 0
4 9 7 19 7 11 0 22 4 25 9 3 5 18 12 33 16 37 9 161 86 192 119 14 14 28 26
32 26 3 0 7 -40 8 -90z m-319 -90 c0 -5 -5 -10 -11 -10 -5 0 -7 5 -4 10 3 6 8
10 11 10 2 0 4 -4 4 -10z m-35 -10 c-3 -5 -12 -10 -18 -10 -7 0 -6 4 3 10 19
12 23 12 15 0z m349 -39 c11 -1 3 -240 -9 -249 -6 -4 -16 -19 -24 -33 -14 -29
-75 -68 -132 -85 -51 -16 -178 -10 -214 8 -40 21 -69 48 -84 77 -16 30 -17
151 -1 181 17 31 72 79 92 80 9 0 19 4 22 8 2 4 22 9 42 10 21 2 39 4 40 5 3
2 252 1 268 -2z"/>
<path d="M100 1808 c-1 -145 -1 -820 0 -945 l0 -113 293 0 293 0 0 25 c0 14
-2 26 -5 26 -4 1 -121 2 -261 3 l-255 1 -1 63 c-1 34 -4 69 -8 77 -3 8 -1 15
4 15 5 0 5 13 0 30 -5 18 -5 30 0 30 6 0 6 10 1 23 -5 13 -5 30 -1 37 5 8 6
18 3 22 -7 12 -8 117 -1 124 4 3 2 18 -2 34 -4 16 -5 31 -2 35 7 7 5 126 -2
133 -3 2 -1 12 4 21 5 10 5 23 0 31 -5 8 -5 21 1 31 6 11 5 20 -1 24 -6 3 -6
15 0 29 5 13 6 26 3 29 -7 8 -8 106 0 113 3 3 2 18 -3 33 -4 16 -5 33 -1 39 4
6 6 24 5 39 -1 15 -3 39 -3 53 -1 21 -6 26 -31 28 l-30 2 0 -92z"/>
<path d="M1053 1599 c-48 -9 -98 -31 -128 -57 -32 -26 -75 -87 -75 -104 0 -18
33 -34 38 -20 2 6 14 23 28 39 13 15 24 31 24 34 0 6 87 51 110 57 18 4 139 4
160 -1 27 -6 75 -35 97 -59 34 -37 45 -76 48 -180 l3 -98 -147 -1 c-80 0 -153
-2 -161 -4 -8 -1 -28 -5 -45 -8 -119 -21 -188 -102 -188 -225 -1 -119 58 -198
171 -231 54 -15 160 -12 217 7 45 14 135 88 135 110 0 7 5 12 10 12 6 0 10
-12 9 -27 -2 -42 17 -82 44 -88 12 -3 49 -5 82 -3 52 3 59 5 60 25 2 22 -2 23
-64 23 l-66 0 -1 308 -1 307 -25 50 c-14 28 -37 60 -50 72 -58 54 -182 81
-285 62z m298 -444 c13 -20 2 -209 -13 -245 -35 -80 -122 -124 -248 -124 -72
-1 -92 3 -129 24 -63 35 -85 78 -85 160 0 110 45 161 162 185 67 14 305 14
313 0z"/>
<path d="M2018 1605 c-2 -2 -19 -6 -38 -9 -53 -8 -96 -33 -133 -77 -19 -21
-37 -39 -40 -39 -3 0 -5 15 -5 33 1 68 -1 73 -27 75 -14 1 -26 -2 -26 -6 -1
-4 -2 -193 -3 -419 l-1 -413 30 0 30 0 0 333 0 332 25 35 c54 75 113 103 215
103 91 0 143 -22 187 -80 43 -56 51 -120 51 -435 l0 -288 28 0 28 0 3 333 3
332 28 41 c16 24 49 53 79 69 42 23 63 28 127 28 87 0 141 -21 184 -73 46 -54
50 -86 53 -410 2 -168 3 -308 4 -312 0 -5 13 -8 28 -8 l28 0 -1 308 c-1 368
-7 398 -85 474 -58 56 -105 71 -212 71 -58 0 -87 -6 -122 -23 -48 -23 -104
-80 -129 -131 l-14 -30 -7 32 c-9 46 -92 125 -148 139 -40 11 -134 21 -140 15z"/>
</g>
</svg>
